<?xml version="1.0" encoding="UTF-8"?>
<svg width="400" height="300" viewBox="0 0 400 300" fill="none" xmlns="http://www.w3.org/2000/svg">
    <!-- Background circle -->
    <circle cx="200" cy="150" r="120" fill="#EBF4FF" />
    
    <!-- Heart shape -->
    <path d="M200 220C200 220 160 180 140 160C120 140 100 120 100 100C100 80 120 60 140 60C160 60 180 80 200 100C220 80 240 60 260 60C280 60 300 80 300 100C300 120 280 140 260 160C240 180 200 220 200 220Z" 
          fill="#C3DAFE" 
          stroke="#4299E1" 
          stroke-width="8"/>
    
    <!-- Question mark -->
    <path d="M190 140C190 130 195 120 205 120C215 120 220 130 220 140C220 150 215 155 210 160C205 165 200 170 200 180" 
          stroke="#4299E1" 
          stroke-width="8" 
          stroke-linecap="round"/>
    <circle cx="200" cy="200" r="4" fill="#4299E1"/>
    
    <!-- Decorative dots -->
    <circle cx="100" cy="50" r="8" fill="#4299E1" opacity="0.5"/>
    <circle cx="320" cy="250" r="6" fill="#4299E1" opacity="0.5"/>
    <circle cx="50" cy="200" r="10" fill="#4299E1" opacity="0.5"/>
    <circle cx="350" cy="100" r="7" fill="#4299E1" opacity="0.5"/>
    <circle cx="150" cy="250" r="5" fill="#4299E1" opacity="0.5"/>
</svg> 